HIERARCHY
ROOT hip
{
	OFFSET 0.000000 0.000000 0.000000
	CHANNELS 6 Xposition Yposition Zposition Xrotation Zrotation Yrotation 
	JOINT abdomen
	{
		OFFSET 0.000000 3.422050 0.000000
		CHANNELS 3 Xrotation Zrotation Yrotation 
		JOINT chest
		{
			OFFSET 0.000000 8.486693 -0.684411
			CHANNELS 3 Xrotation Zrotation Yrotation 
			JOINT neck
			{
				OFFSET 0.000000 10.266162 -0.273764
				CHANNELS 3 Xrotation Zrotation Yrotation 
				JOINT head
				{
					OFFSET 0.000000 3.148285 0.000000
					CHANNELS 3 Xrotation Zrotation Yrotation 
					End Site
					{
						OFFSET 0.000000 3.148289 0.000000
					}
				}
			}
			JOINT lCollar
			{
				OFFSET 3.422053 6.707223 -0.821293
				CHANNELS 3 Yrotation Zrotation Xrotation 
				JOINT lShldr
				{
					OFFSET 3.285171 0.000000 0.000000
					CHANNELS 3 Zrotation Yrotation Xrotation 
					JOINT lForeArm
					{
						OFFSET 10.129278 0.000000 0.000000
						CHANNELS 3 Yrotation Zrotation Xrotation 
						JOINT lHand
						{
							OFFSET 8.486692 0.000000 0.000000
							CHANNELS 3 Zrotation Yrotation Xrotation 
							End Site
							{
								OFFSET 4.106464 0.000000 0.000000
							}
						}
					}
				}
			}
			JOINT rCollar
			{
				OFFSET -3.558935 6.707223 -0.821293
				CHANNELS 3 Yrotation Zrotation Xrotation 
				JOINT rShldr
				{
					OFFSET -3.148289 0.000000 0.000000
					CHANNELS 3 Zrotation Yrotation Xrotation 
					JOINT rForeArm
					{
						OFFSET -10.266159 0.000000 0.000000
						CHANNELS 3 Yrotation Zrotation Xrotation 
						JOINT rHand
						{
							OFFSET -8.349810 0.000000 0.000000
							CHANNELS 3 Zrotation Yrotation Xrotation 
							End Site
							{
								OFFSET -4.106464 0.000000 0.000000
							}
						}
					}
				}
			}
		}
	}
	JOINT lThigh
	{
		OFFSET 5.338403 -1.642589 1.368821
		CHANNELS 3 Xrotation Zrotation Yrotation 
		JOINT lShin
		{
			OFFSET -2.053232 -20.121670 0.000000
			CHANNELS 3 Xrotation Zrotation Yrotation 
			JOINT lFoot
			{
				OFFSET 0.000000 -19.300380 -1.231939
				CHANNELS 3 Xrotation Yrotation Zrotation 
				End Site
				{
					OFFSET 0.000000 -2.463878 4.653993
				}
			}
		}
	}
	JOINT rThigh
	{
		OFFSET -5.338403 -1.642589 1.368821
		CHANNELS 3 Xrotation Zrotation Yrotation 
		JOINT rShin
		{
			OFFSET 2.053232 -20.121670 0.000000
			CHANNELS 3 Xrotation Zrotation Yrotation 
			JOINT rFoot
			{
				OFFSET 0.000000 -19.300380 -1.231939
				CHANNELS 3 Xrotation Yrotation Zrotation 
				End Site
				{
					OFFSET 0.000000 -2.463878 4.653993
				}
			}
		}
	}
}
MOTION
Frames: 14
Frame Time: 0.033264
0.000000 43.528500 0.000000 0.000000 0.000000 0.000000 0.000000 0.000000 0.000000 0.000000 0.000000 0.000000 0.000000 0.000000 0.000000 0.000000 0.000000 0.000000 0.000000 0.000000 0.000000 0.000000 0.000000 0.000000 0.000000 0.000000 0.000000 0.000000 0.000000 0.000000 0.000000 0.000000 0.000000 0.000000 0.000000 0.000000 0.000000 0.000000 0.000000 0.000000 0.000000 0.000000 0.000000 0.000000 0.000000 0.000000 0.000000 0.000000 0.000000 0.000000 0.000000 0.000000 0.000000 0.000000 0.000000 0.000000 0.000000 0.000000 0.000000 0.000000 
0.820027 31.312294 0.777975 38.998096 0.000000 0.000000 -0.104447 0.610036 -0.240112 -23.784643 0.570099 -1.136834 -0.260533 0.000000 0.000000 -0.344462 0.000000 0.000000 -36.674614 -10.696246 -28.030062 -45.636074 14.511082 58.163700 -34.175659 -7.571063 -0.807259 22.732904 -15.053237 -41.991997 25.305153 10.083873 10.489919 45.959942 -24.079576 -4.010334 86.328903 27.568407 -21.568083 -33.971729 12.908182 -22.551573 -43.577862 54.764462 -16.707310 87.380806 0.215924 -0.400693 70.196442 11.522085 -42.439445 -43.577652 -54.784405 16.687269 87.371094 -0.231064 0.386214 70.196854 -11.539255 42.407135 
0.820027 31.229191 0.936838 38.166809 0.000000 0.000000 0.284156 0.609940 -0.240204 -23.174149 0.569946 -1.136921 -0.519707 0.000000 0.000000 -0.684388 0.000000 0.000000 -36.523102 -10.288485 -27.970806 -45.994598 14.604026 58.088356 -34.417828 -7.706783 -0.838316 22.986864 -14.984416 -41.851120 25.305153 10.083873 10.489919 45.959942 -24.079578 -4.010334 86.328903 27.568407 -21.568083 -34.146347 13.169480 -22.556938 -42.119289 55.489670 -15.809059 86.935211 0.194971 -0.403123 69.909195 11.697212 -41.773624 -42.118343 -55.509968 15.788423 86.926003 -0.210415 0.389805 69.908829 -11.714267 41.741299 
0.820027 31.146088 1.095701 37.334824 0.000000 0.000000 0.672830 0.609844 -0.240298 -22.563379 0.569794 -1.137010 -0.778974 0.000000 0.000000 -1.024525 0.000000 0.000000 -36.372166 -9.880478 -27.912703 -46.353466 14.696528 58.012371 -34.660175 -7.842388 -0.869965 23.240953 -14.916189 -41.709957 25.305153 10.083873 10.489920 45.959942 -24.079576 -4.010333 86.328911 27.568407 -21.568087 -34.321194 13.430794 -22.563124 -40.610786 56.202492 -14.859599 86.489479 0.173995 -0.405391 69.619522 11.869155 -41.106106 -40.609009 -56.223118 14.838281 86.480820 -0.189735 0.393236 69.618401 -11.886087 41.073753 
0.820027 31.062984 1.254564 36.502232 0.000000 0.000000 1.061567 0.609749 -0.240392 -21.952366 0.569643 -1.137100 -1.038333 0.000000 0.000000 -1.364868 0.000000 0.000000 -36.221813 -9.472239 -27.855757 -46.712658 14.788579 57.935734 -34.902695 -7.977867 -0.902206 23.495157 -14.848557 -41.568508 25.305157 10.083874 10.489921 45.959942 -24.079578 -4.010334 86.328903 27.568411 -21.568087 -34.496284 13.692117 -22.570143 -39.050240 56.901756 -13.856795 86.043663 0.152997 -0.407496 69.327507 12.037859 -40.436939 -39.047546 -56.922726 13.834703 86.035553 -0.169024 0.396507 69.325600 -12.054672 40.404564 
0.820027 30.979881 1.413427 35.669098 0.000000 0.000000 1.450357 0.609655 -0.240486 -21.341146 0.569493 -1.137191 -1.297780 0.000000 0.000000 -1.705411 0.000000 0.000000 -36.072014 -9.063787 -27.799950 -47.072189 14.880178 57.858494 -35.145393 -8.113220 -0.935039 23.749481 -14.781525 -41.426773 25.305153 10.083873 10.489918 45.959938 -24.079575 -4.010334 86.328896 27.568407 -21.568081 -34.671612 13.953436 -22.577984 -37.435593 57.586288 -12.798556 85.597786 0.131979 -0.409438 69.033157 12.203284 -39.766182 -37.431877 -57.607578 12.775595 85.590202 -0.148285 0.399618 69.030487 -12.219962 39.733791 
0.820027 30.896778 1.572290 34.835529 0.000000 0.000000 1.839192 0.609562 -0.240582 -20.729748 0.569344 -1.137285 -1.557312 0.000000 0.000000 -2.046149 0.000000 0.000000 -35.922764 -8.655128 -27.745272 -47.432018 14.971313 57.780594 -35.388275 -8.248443 -0.968464 24.003923 -14.715099 -41.284771 25.305153 10.083873 10.489919 45.959942 -24.079576 -4.010334 86.328903 27.568405 -21.568083 -34.847202 14.214753 -22.586670 -35.764778 58.254780 -11.682816 85.151825 0.110944 -0.411217 68.736549 12.365385 -39.093899 -35.759945 -58.276379 11.658877 85.144768 -0.127519 0.402568 68.733139 -12.381918 39.061481 
0.820027 30.813675 1.731153 34.001610 0.000000 0.000000 2.228063 0.609469 -0.240678 -20.118214 0.569196 -1.137380 -1.816927 0.000000 0.000000 -2.387075 0.000000 0.000000 -35.774048 -8.246285 -27.691730 -47.792160 15.061977 57.702068 -35.631310 -8.383528 -1.002481 24.258480 -14.649282 -41.142509 25.305153 10.083873 10.489919 45.959942 -24.079576 -4.010334 86.328903 27.568407 -21.568083 -35.023052 14.476062 -22.596193 -34.035896 58.905949 -10.507633 84.705818 0.089893 -0.412832 68.437775 12.524123 -38.420162 -34.029835 -58.927841 10.482606 84.699287 -0.106728 0.405356 68.433586 -12.540502 38.387718 
0.820027 30.730572 1.890016 33.167423 0.000000 0.000000 2.616961 0.609376 -0.240774 -19.506573 0.569048 -1.137476 -2.076623 0.000000 0.000000 -2.728184 0.000000 0.000000 -35.625862 -7.837273 -27.639305 -48.152607 15.152174 57.622917 -35.874538 -8.518477 -1.037091 24.513134 -14.584071 -40.999973 25.305153 10.083873 10.489919 45.959942 -24.079576 -4.010333 86.328903 27.568407 -21.568083 -35.199154 14.737350 -22.606556 -32.247135 59.538399 -9.271176 84.259766 0.068828 -0.414283 68.136833 12.679443 -37.745014 -32.239697 -59.560543 9.244933 84.253777 -0.085914 0.407983 68.131874 -12.695662 37.712543 
0.820027 30.647469 2.048879 32.333057 0.000000 0.000000 3.005877 0.609285 -0.240871 -18.894861 0.568902 -1.137574 -2.336396 0.000000 0.000000 -3.069470 0.000000 0.000000 -35.478172 -7.428100 -27.587988 -48.513344 15.241885 57.543129 -36.117939 -8.653280 -1.072293 24.767883 -14.519469 -40.857166 25.305155 10.083874 10.489920 45.959942 -24.079576 -4.010334 86.328918 27.568413 -21.568089 -35.375519 14.998612 -22.617760 -30.396856 60.150661 -7.971810 83.813690 0.047751 -0.415570 67.833817 12.831316 -37.068542 -30.387936 -60.173054 7.944226 83.808235 -0.065079 0.410449 67.828110 -12.847364 37.036037 
0.820027 30.564365 2.207742 31.498610 0.000000 0.000000 3.394801 0.609194 -0.240969 -18.283117 0.568757 -1.137674 -2.596244 0.000000 0.000000 -3.410927 0.000000 0.000000 -35.330986 -7.018790 -27.537786 -48.874371 15.331111 57.462723 -36.361500 -8.787935 -1.108087 25.022734 -14.455484 -40.714111 25.305155 10.083874 10.489921 45.959942 -24.079578 -4.010334 86.328903 27.568407 -21.568083 -35.552162 15.259843 -22.629810 -28.483711 60.741310 -6.608136 83.367599 0.026664 -0.416693 67.528763 12.979692 -36.390781 -28.473171 -60.763920 6.579083 83.362686 -0.044225 0.412752 67.522293 -12.995562 36.358253 
0.820027 30.481260 2.366605 30.664152 0.000000 0.000000 3.783726 0.609103 -0.241068 -17.671370 0.568613 -1.137775 -2.856166 0.000000 0.000000 -3.752548 0.000000 0.000000 -35.184296 -6.609352 -27.488688 -49.235687 15.419848 57.381710 -36.605244 -8.922441 -1.144473 25.277674 -14.392116 -40.570805 25.305151 10.083872 10.489919 45.959934 -24.079573 -4.010333 86.328903 27.568407 -21.568083 -35.729095 15.521040 -22.642719 -26.506598 61.308769 -5.179054 82.921516 0.005569 -0.417652 67.221764 13.124539 -35.711830 -26.494303 -61.331562 5.148393 82.917137 -0.023353 0.414893 67.214531 -13.140222 35.679268 
0.820027 30.398157 2.525468 29.829790 0.000000 0.000000 4.172641 0.609014 -0.241167 -17.059660 0.568470 -1.137877 -3.116156 0.000000 0.000000 -4.094329 0.000000 0.000000 -35.038071 -6.199801 -27.440680 -49.597301 15.508101 57.300102 -36.849167 -9.056790 -1.181452 25.532700 -14.329367 -40.427254 25.305151 10.083872 10.489918 45.959942 -24.079576 -4.010334 86.328903 27.568407 -21.568083 -35.906307 15.782194 -22.656479 -24.464828 61.851501 -3.683846 82.475433 -0.015532 -0.418447 66.912872 13.265818 -35.031738 -24.450645 -61.874474 3.651436 82.471588 -0.002467 0.416872 66.904877 -13.281301 34.999142 
0.820027 30.315054 2.684331 28.995602 0.000000 0.000000 4.561539 0.608925 -0.241266 -16.448019 0.568328 -1.137982 -3.376215 0.000000 0.000000 -4.436263 0.000000 0.000000 -34.892303 -5.790156 -27.393759 -49.959160 15.595839 57.217873 -37.093262 -9.190980 -1.219023 25.787821 -14.267244 -40.283470 25.305153 10.083873 10.489919 45.959938 -24.079575 -4.010334 86.328903 27.568405 -21.568079 -36.083797 16.043293 -22.671093 -22.358139 62.367947 -2.122220 82.029373 -0.036637 -0.419077 66.602119 13.403494 -34.350582 -22.341896 -62.390999 2.087916 82.026085 0.018434 0.418688 66.593399 -13.418777 34.317963 
